<?xml version="1.0" encoding="iso-8859-1"?>
<!-- Uploaded to: SVG Repo, www.svgrepo.com, Generator: SVG Repo Mixer Tools -->
<!DOCTYPE svg PUBLIC "-//W3C//DTD SVG 1.1//EN" "http://www.w3.org/Graphics/SVG/1.1/DTD/svg11.dtd">
<svg fill="#000000" height="800px" width="800px" version="1.1" id="Capa_1" xmlns="http://www.w3.org/2000/svg" xmlns:xlink="http://www.w3.org/1999/xlink" 
	 viewBox="0 0 293.303 293.303" xml:space="preserve">
<g>
	<path d="M146.652,63.306c-9.125,0-17.898,1.487-26.115,4.197l105.263,105.262c2.71-8.217,4.197-16.99,4.197-26.114
		C229.997,100.621,192.682,63.306,146.652,63.306z"/>
	<path d="M146.652,229.996c9.125,0,17.898-1.487,26.115-4.197L67.504,120.537c-2.71,8.217-4.197,16.99-4.197,26.114
		C63.306,192.682,100.621,229.996,146.652,229.996z"/>
	<path d="M146.652,0C65.306,0,0,66.198,0,146.651c0,80.864,65.787,146.651,146.651,146.651c80.822,0,146.65-65.769,146.65-146.651
		C293.302,65.787,227.515,0,146.652,0z M190.728,243.761c-13.441,6.125-28.367,9.542-44.076,9.542
		C87.844,253.303,40,205.459,40,146.651c0-15.709,3.416-30.635,9.541-44.076c2.527-5.546,5.517-10.839,8.918-15.83l148.099,148.097
		C201.567,238.244,196.275,241.234,190.728,243.761z M243.761,190.727c-2.527,5.546-5.517,10.839-8.919,15.83L86.745,58.46
		c4.991-3.401,10.284-6.391,15.83-8.918C116.016,43.417,130.942,40,146.652,40c58.808,0,106.65,47.844,106.65,106.651
		C253.302,162.361,249.886,177.286,243.761,190.727z"/>
</g>
</svg>